<svg version="1.1" viewBox="0.0 0.0 960.0 540.0" fill="none" stroke="none" stroke-linecap="square" stroke-miterlimit="10" xmlns:xlink="http://www.w3.org/1999/xlink" xmlns="http://www.w3.org/2000/svg"><clipPath id="p.0"><path d="m0 0l960.0 0l0 540.0l-960.0 0l0 -540.0z" clip-rule="nonzero"/></clipPath><g clip-path="url(#p.0)"><path fill="#0a0000" d="m0 0l960.0 0l0 540.0l-960.0 0z" fill-rule="evenodd"/><path fill="#000000" fill-opacity="0.0" d="m32.725285 68.46457l894.5512 0l0 215.49606l-894.5512 0z" fill-rule="evenodd"/><path fill="#ffffff" d="m363.6959 254.48064l0 -61.078125l41.203125 0l0 7.203125l-33.125 0l0 18.921875l28.671875 0l0 7.203125l-28.671875 0l0 27.75l-8.078125 0zm79.746826 0l0 -6.5q-5.171875 7.5 -14.046875 7.5q-3.90625 0 -7.3125 -1.5q-3.390625 -1.5 -5.046875 -3.765625q-1.640625 -2.28125 -2.296875 -5.5625q-0.46875 -2.21875 -0.46875 -7.0l0 -27.421875l7.5 0l0 24.546875q0 5.875 0.46875 7.90625q0.703125 2.96875 2.984375 4.65625q2.296875 1.6875 5.671875 1.6875q3.375 0 6.328125 -1.734375q2.96875 -1.734375 4.1875 -4.703125q1.234375 -2.984375 1.234375 -8.65625l0 -23.703125l7.5 0l0 44.25l-6.703125 0zm34.830444 -6.703125l1.078125 6.625q-3.15625 0.65625 -5.65625 0.65625q-4.09375 0 -6.34375 -1.28125q-2.25 -1.296875 -3.171875 -3.390625q-0.90625 -2.109375 -0.90625 -8.859375l0 -25.46875l-5.5 0l0 -5.828125l5.5 0l0 -10.953125l7.453125 -4.5l0 15.453125l7.546875 0l0 5.828125l-7.546875 0l0 25.875q0 3.21875 0.390625 4.140625q0.40625 0.90625 1.296875 1.453125q0.90625 0.53125 2.5625 0.53125q1.25 0 3.296875 -0.28125zm36.33188 6.703125l0 -6.5q-5.171875 7.5 -14.046875 7.5q-3.90625 0 -7.3125 -1.5q-3.390625 -1.5 -5.046875 -3.765625q-1.640625 -2.28125 -2.296875 -5.5625q-0.46875 -2.21875 -0.46875 -7.0l0 -27.421875l7.5 0l0 24.546875q0 5.875 0.46875 7.90625q0.703125 2.96875 2.984375 4.65625q2.296875 1.6875 5.671875 1.6875q3.375 0 6.328125 -1.734375q2.96875 -1.734375 4.1875 -4.703125q1.234375 -2.984375 1.234375 -8.65625l0 -23.703125l7.5 0l0 44.25l-6.703125 0zm18.37732 0l0 -44.25l6.75 0l0 6.703125q2.578125 -4.703125 4.765625 -6.203125q2.1875 -1.5 4.8125 -1.5q3.796875 0 7.703125 2.421875l-2.578125 6.953125q-2.75 -1.625 -5.5 -1.625q-2.453125 0 -4.421875 1.484375q-1.953125 1.46875 -2.78125 4.09375q-1.25 4.0 -1.25 8.75l0 23.171875l-7.5 0zm58.789917 -14.25l7.734375 0.953125q-1.828125 6.796875 -6.78125 10.546875q-4.953125 3.75 -12.671875 3.75q-9.703125 0 -15.390625 -5.96875q-5.6875 -5.984375 -5.6875 -16.78125q0 -11.171875 5.75 -17.328125q5.75 -6.171875 14.921875 -6.171875q8.875 0 14.484375 6.046875q5.625 6.03125 5.625 17.0q0 0.65625 -0.03125 2.0l-33.0 0q0.421875 7.28125 4.125 11.15625q3.703125 3.875 9.25 3.875q4.125 0 7.03125 -2.15625q2.921875 -2.171875 4.640625 -6.921875zm-24.625 -12.125l24.703125 0q-0.5 -5.578125 -2.828125 -8.375q-3.59375 -4.328125 -9.296875 -4.328125q-5.171875 0 -8.6875 3.453125q-3.515625 3.453125 -3.890625 9.25z" fill-rule="nonzero"/><path fill="#000000" fill-opacity="0.0" d="m32.72441 297.54593l894.55115 0l0 83.212616l-894.55115 0z" fill-rule="evenodd"/><path fill="#adadad" d="m85.747665 342.38593l10.25 -26.71875l3.8125 0l10.9375 26.71875l-4.03125 0l-3.109375 -8.09375l-11.171875 0l-2.9375 8.09375l-3.75 0zm7.703125 -10.96875l9.0625 0l-2.796875 -7.40625q-1.265625 -3.375 -1.890625 -5.53125q-0.515625 2.5625 -1.4375 5.09375l-2.9375 7.84375zm19.694443 10.96875l0 -19.359375l2.953125 0l0 2.75q2.140625 -3.1875 6.171875 -3.1875q1.75 0 3.21875 0.640625q1.46875 0.625 2.1875 1.640625q0.734375 1.015625 1.03125 2.421875q0.171875 0.90625 0.171875 3.1875l0 11.90625l-3.28125 0l0 -11.78125q0 -2.0 -0.390625 -2.984375q-0.375 -1.0 -1.359375 -1.59375q-0.96875 -0.59375 -2.28125 -0.59375q-2.09375 0 -3.625 1.328125q-1.515625 1.328125 -1.515625 5.046875l0 10.578125l-3.28125 0zm32.16234 0l0 -26.71875l3.53125 0l0 26.71875l-3.53125 0zm9.339706 0l0 -19.359375l2.953125 0l0 2.75q2.140625 -3.1875 6.171875 -3.1875q1.75 0 3.21875 0.640625q1.46875 0.625 2.1875 1.640625q0.734375 1.015625 1.03125 2.421875q0.171875 0.90625 0.171875 3.1875l0 11.90625l-3.28125 0l0 -11.78125q0 -2.0 -0.390625 -2.984375q-0.375 -1.0 -1.359375 -1.59375q-0.96875 -0.59375 -2.28125 -0.59375q-2.09375 0 -3.625 1.328125q-1.515625 1.328125 -1.515625 5.046875l0 10.578125l-3.28125 0zm31.552963 0l0 -26.71875l9.203125 0q3.125 0 4.765625 0.375q2.296875 0.53125 3.921875 1.921875q2.109375 1.78125 3.15625 4.5625q1.046875 2.78125 1.046875 6.359375q0 3.03125 -0.71875 5.390625q-0.703125 2.34375 -1.8125 3.890625q-1.109375 1.546875 -2.4375 2.4375q-1.3125 0.875 -3.1875 1.328125q-1.859375 0.453125 -4.296875 0.453125l-9.640625 0zm3.546875 -3.15625l5.703125 0q2.640625 0 4.140625 -0.484375q1.5 -0.5 2.40625 -1.390625q1.25 -1.25 1.953125 -3.375q0.703125 -2.125 0.703125 -5.15625q0 -4.1875 -1.375 -6.4375q-1.375 -2.25 -3.34375 -3.015625q-1.421875 -0.546875 -4.578125 -0.546875l-5.609375 0l0 20.40625zm36.25406 -3.078125l3.375 0.421875q-0.796875 2.96875 -2.96875 4.609375q-2.15625 1.640625 -5.53125 1.640625q-4.25 0 -6.75 -2.609375q-2.484375 -2.625 -2.484375 -7.34375q0 -4.890625 2.515625 -7.578125q2.515625 -2.703125 6.53125 -2.703125q3.890625 0 6.34375 2.640625q2.453125 2.640625 2.453125 7.4375q0 0.296875 -0.015625 0.875l-14.4375 0q0.1875 3.1875 1.8125 4.890625q1.625 1.6875 4.046875 1.6875q1.796875 0 3.078125 -0.9375q1.28125 -0.953125 2.03125 -3.03125zm-10.78125 -5.296875l10.8125 0q-0.21875 -2.453125 -1.234375 -3.671875q-1.578125 -1.890625 -4.078125 -1.890625q-2.25 0 -3.796875 1.515625q-1.53125 1.5 -1.703125 4.046875zm18.275757 18.953125l0 -26.78125l3.0 0l0 2.515625q1.046875 -1.46875 2.375 -2.203125q1.34375 -0.75 3.234375 -0.75q2.484375 0 4.375 1.28125q1.890625 1.265625 2.859375 3.59375q0.96875 2.328125 0.96875 5.09375q0 2.96875 -1.0625 5.359375q-1.0625 2.375 -3.109375 3.640625q-2.03125 1.265625 -4.265625 1.265625q-1.640625 0 -2.953125 -0.6875q-1.296875 -0.703125 -2.140625 -1.75l0 9.421875l-3.28125 0zm2.984375 -16.984375q0 3.734375 1.5 5.515625q1.515625 1.78125 3.671875 1.78125q2.1875 0 3.734375 -1.84375q1.5625 -1.84375 1.5625 -5.734375q0 -3.703125 -1.515625 -5.53125q-1.515625 -1.84375 -3.640625 -1.84375q-2.09375 0 -3.703125 1.953125q-1.609375 1.953125 -1.609375 5.703125zm24.947617 6.625l0.46875 2.90625q-1.375 0.28125 -2.46875 0.28125q-1.796875 0 -2.78125 -0.5625q-0.98435974 -0.5625 -1.3906097 -1.484375q-0.390625 -0.921875 -0.390625 -3.875l0 -11.140625l-2.40625 0l0 -2.546875l2.40625 0l0 -4.796875l3.2656097 -1.96875l0 6.765625l3.296875 0l0 2.546875l-3.296875 0l0 11.328125q0 1.40625 0.171875 1.8125q0.171875 0.390625 0.5625 0.625q0.390625 0.234375 1.125 0.234375q0.546875 0 1.4375 -0.125zm3.1990967 2.9375l0 -26.71875l3.28125 0l0 9.578125q2.296875 -2.65625 5.796875 -2.65625q2.15625 0 3.734375 0.859375q1.59375 0.84375 2.28125 2.34375q0.6875 1.484375 0.6875 4.328125l0 12.265625l-3.28125 0l0 -12.265625q0 -2.46875 -1.078125 -3.578125q-1.0625 -1.125 -3.015625 -1.125q-1.453125 0 -2.75 0.765625q-1.28125 0.75 -1.828125 2.046875q-0.546875 1.28125 -0.546875 3.5625l0 10.59375l-3.28125 0zm31.412323 0l0 -26.71875l3.53125 0l0 23.5625l13.15625 0l0 3.15625l-16.6875 0zm19.260132 -9.671875q0 -5.390625 3.0 -7.96875q2.484375 -2.15625 6.078125 -2.15625q4.0 0 6.53125 2.625q2.53125 2.609375 2.53125 7.21875q0 3.734375 -1.125 5.875q-1.109375 2.140625 -3.265625 3.328125q-2.140625 1.1875 -4.671875 1.1875q-4.0625 0 -6.578125 -2.609375q-2.5 -2.609375 -2.5 -7.5zm3.375 0q0 3.71875 1.625 5.5625q1.625 1.84375 4.078125 1.84375q2.453125 0 4.0625 -1.859375q1.625 -1.859375 1.625 -5.65625q0 -3.59375 -1.640625 -5.4375q-1.625 -1.859375 -4.046875 -1.859375q-2.453125 0 -4.078125 1.84375q-1.625 1.84375 -1.625 5.5625zm17.385132 0q0 -5.390625 3.0 -7.96875q2.484375 -2.15625 6.078125 -2.15625q4.0 0 6.53125 2.625q2.53125 2.609375 2.53125 7.21875q0 3.734375 -1.125 5.875q-1.109375 2.140625 -3.265625 3.328125q-2.140625 1.1875 -4.671875 1.1875q-4.0625 0 -6.578125 -2.609375q-2.5 -2.609375 -2.5 -7.5zm3.375 0q0 3.71875 1.625 5.5625q1.625 1.84375 4.078125 1.84375q2.453125 0 4.0625 -1.859375q1.625 -1.859375 1.625 -5.65625q0 -3.59375 -1.640625 -5.4375q-1.625 -1.859375 -4.046875 -1.859375q-2.453125 0 -4.078125 1.84375q-1.625 1.84375 -1.625 5.5625zm18.635132 9.671875l0 -26.71875l3.28125 0l0 15.234375l7.765625 -7.875l4.234375 0l-7.390625 7.1875l8.140625 12.171875l-4.046875 0l-6.390625 -9.890625l-2.3125 2.21875l0 7.671875l-3.28125 0zm24.443878 0l10.25 -26.71875l3.8125 0l10.9375 26.71875l-4.03125 0l-3.109375 -8.09375l-11.171875 0l-2.9375 8.09375l-3.75 0zm7.703125 -10.96875l9.0625 0l-2.796875 -7.40625q-1.265625 -3.375 -1.890625 -5.53125q-0.515625 2.5625 -1.4375 5.09375l-2.9375 7.84375zm26.866302 8.03125l0.46875 2.90625q-1.375 0.28125 -2.46875 0.28125q-1.796875 0 -2.78125 -0.5625q-0.984375 -0.5625 -1.390625 -1.484375q-0.390625 -0.921875 -0.390625 -3.875l0 -11.140625l-2.40625 0l0 -2.546875l2.40625 0l0 -4.796875l3.265625 -1.96875l0 6.765625l3.296875 0l0 2.546875l-3.296875 0l0 11.328125q0 1.40625 0.171875 1.8125q0.171875 0.390625 0.5625 0.625q0.390625 0.234375 1.125 0.234375q0.546875 0 1.4375 -0.125zm18.663818 2.9375l-7.09375 -26.71875l3.625 0l4.0625 17.515625q0.65625 2.75 1.140625 5.46875q1.015625 -4.28125 1.203125 -4.9375l5.078125 -18.046875l4.265625 0l3.828125 13.515625q1.4375 5.03125 2.078125 9.46875q0.515625 -2.53125 1.328125 -5.8125l4.203125 -17.171875l3.546875 0l-7.328125 26.71875l-3.40625 0l-5.625 -20.359375q-0.71875 -2.546875 -0.84375 -3.140625q-0.421875 1.84375 -0.78125 3.140625l-5.671875 20.359375l-3.609375 0zm30.138306 0l0 -26.71875l3.28125 0l0 9.578125q2.296875 -2.65625 5.796875 -2.65625q2.15625 0 3.734375 0.859375q1.59375 0.84375 2.28125 2.34375q0.6875 1.484375 0.6875 4.328125l0 12.265625l-3.28125 0l0 -12.265625q0 -2.46875 -1.078125 -3.578125q-1.0625 -1.125 -3.015625 -1.125q-1.453125 0 -2.75 0.765625q-1.28125 0.75 -1.828125 2.046875q-0.546875 1.28125 -0.546875 3.5625l0 10.59375l-3.28125 0zm33.400757 -2.390625q-1.828125 1.546875 -3.515625 2.1875q-1.6875 0.640625 -3.609375 0.640625q-3.1875 0 -4.90625 -1.546875q-1.71875 -1.5625 -1.71875 -4.0q0 -1.421875 0.640625 -2.59375q0.65625 -1.171875 1.703125 -1.875q1.046875 -0.71875 2.359375 -1.078125q0.96875 -0.265625 2.921875 -0.5q3.96875 -0.46875 5.84375 -1.125q0.03125 -0.671875 0.03125 -0.859375q0 -2.0 -0.9375 -2.828125q-1.25 -1.109375 -3.734375 -1.109375q-2.3125 0 -3.421875 0.8125q-1.09375 0.8125 -1.625 2.875l-3.21875 -0.4375q0.4375 -2.0625 1.4375 -3.328125q1.015625 -1.265625 2.90625 -1.953125q1.890625 -0.6875 4.390625 -0.6875q2.484375 0 4.03125 0.59375q1.546875 0.578125 2.28125 1.46875q0.734375 0.875 1.015625 2.21875q0.171875 0.84375 0.171875 3.03125l0 4.375q0 4.578125 0.203125 5.796875q0.21875 1.203125 0.828125 2.3125l-3.421875 0q-0.515625 -1.015625 -0.65625 -2.390625zm-0.28125 -7.328125q-1.78125 0.734375 -5.359375 1.25q-2.015625 0.28125 -2.859375 0.65625q-0.828125 0.359375 -1.296875 1.0625q-0.453125 0.703125 -0.453125 1.5625q0 1.3125 0.984375 2.1875q1.0 0.875 2.921875 0.875q1.890625 0 3.359375 -0.828125q1.484375 -0.84375 2.1875 -2.28125q0.515625 -1.109375 0.515625 -3.28125l0 -1.203125zm15.572662 6.78125l0.46875 2.90625q-1.375 0.28125 -2.46875 0.28125q-1.7969055 0 -2.7812805 -0.5625q-0.984375 -0.5625 -1.390625 -1.484375q-0.390625 -0.921875 -0.390625 -3.875l0 -11.140625l-2.40625 0l0 -2.546875l2.40625 0l0 -4.796875l3.265625 -1.96875l0 6.765625l3.2969055 0l0 2.546875l-3.2969055 0l0 11.328125q0 1.40625 0.171875 1.8125q0.171875 0.390625 0.5625305 0.625q0.390625 0.234375 1.125 0.234375q0.546875 0 1.4375 -0.125zm12.913818 -10.078125q0 -6.65625 3.578125 -10.40625q3.578125 -3.765625 9.21875 -3.765625q3.703125 0 6.671875 1.765625q2.96875 1.765625 4.53125 4.9375q1.5625 3.15625 1.5625 7.15625q0 4.0625 -1.640625 7.28125q-1.640625 3.203125 -4.65625 4.859375q-3.0 1.640625 -6.484375 1.640625q-3.765625 0 -6.75 -1.8125q-2.96875 -1.828125 -4.5 -4.984375q-1.53125 -3.15625 -1.53125 -6.671875zm3.65625 0.0625q0 4.828125 2.59375 7.609375q2.59375 2.78125 6.515625 2.78125q4.0 0 6.578125 -2.8125q2.578125 -2.8125 2.578125 -7.96875q0 -3.265625 -1.109375 -5.6875q-1.109375 -2.4375 -3.234375 -3.78125q-2.109375 -1.34375 -4.75 -1.34375q-3.765625 0 -6.46875 2.59375q-2.703125 2.578125 -2.703125 8.609375zm38.722534 12.953125l0 -2.84375q-2.25 3.28125 -6.140625 3.28125q-1.703125 0 -3.203125 -0.65625q-1.484375 -0.65625 -2.203125 -1.640625q-0.71875 -1.0 -1.0 -2.4375q-0.203125 -0.96875 -0.203125 -3.0625l0 -12.0l3.28125 0l0 10.734375q0 2.578125 0.203125 3.46875q0.296875 1.296875 1.296875 2.03125q1.015625 0.734375 2.484375 0.734375q1.484375 0 2.765625 -0.75q1.296875 -0.765625 1.828125 -2.0625q0.546875 -1.296875 0.546875 -3.78125l0 -10.375l3.28125 0l0 19.359375l-2.9375 0zm8.041382 0l0 -19.359375l2.953125 0l0 2.9375q1.125 -2.0625 2.078125 -2.71875q0.96875 -0.65625 2.109375 -0.65625q1.671875 0 3.375 1.0625l-1.125 3.046875q-1.203125 -0.71875 -2.40625 -0.71875q-1.078125 0 -1.9375 0.65625q-0.859375 0.640625 -1.21875 1.78125q-0.546875 1.75 -0.546875 3.828125l0 10.140625l-3.28125 0zm23.442139 0l0 -26.71875l18.03125 0l0 3.15625l-14.5 0l0 8.265625l12.546875 0l0 3.15625l-12.546875 0l0 12.140625l-3.53125 0zm34.87964 0l0 -2.84375q-2.25 3.28125 -6.140625 3.28125q-1.703125 0 -3.203125 -0.65625q-1.484375 -0.65625 -2.203125 -1.640625q-0.71875 -1.0 -1.0 -2.4375q-0.203125 -0.96875 -0.203125 -3.0625l0 -12.0l3.28125 0l0 10.734375q0 2.578125 0.203125 3.46875q0.296875 1.296875 1.296875 2.03125q1.015625 0.734375 2.484375 0.734375q1.484375 0 2.765625 -0.75q1.296875 -0.765625 1.828125 -2.0625q0.546875 -1.296875 0.546875 -3.78125l0 -10.375l3.28125 0l0 19.359375l-2.9375 0zm15.244507 -2.9375l0.46875 2.90625q-1.375 0.28125 -2.46875 0.28125q-1.796875 0 -2.78125 -0.5625q-0.984375 -0.5625 -1.390625 -1.484375q-0.390625 -0.921875 -0.390625 -3.875l0 -11.140625l-2.40625 0l0 -2.546875l2.40625 0l0 -4.796875l3.265625 -1.96875l0 6.765625l3.296875 0l0 2.546875l-3.296875 0l0 11.328125q0 1.40625 0.171875 1.8125q0.171875 0.390625 0.5625 0.625q0.390625 0.234375 1.125 0.234375q0.546875 0 1.4375 -0.125zm15.886597 2.9375l0 -2.84375q-2.25 3.28125 -6.140625 3.28125q-1.703125 0 -3.203125 -0.65625q-1.484375 -0.65625 -2.203125 -1.640625q-0.71875 -1.0 -1.0 -2.4375q-0.203125 -0.96875 -0.203125 -3.0625l0 -12.0l3.28125 0l0 10.734375q0 2.578125 0.203125 3.46875q0.296875 1.296875 1.296875 2.03125q1.015625 0.734375 2.484375 0.734375q1.484375 0 2.765625 -0.75q1.296875 -0.765625 1.828125 -2.0625q0.546875 -1.296875 0.546875 -3.78125l0 -10.375l3.28125 0l0 19.359375l-2.9375 0zm8.041382 0l0 -19.359375l2.953125 0l0 2.9375q1.125 -2.0625 2.078125 -2.71875q0.96875 -0.65625 2.109375 -0.65625q1.671875 0 3.375 1.0625l-1.125 3.046875q-1.203125 -0.71875 -2.40625 -0.71875q-1.078125 0 -1.9375 0.65625q-0.859375 0.640625 -1.21875 1.78125q-0.546875 1.75 -0.546875 3.828125l0 10.140625l-3.28125 0zm25.727417 -6.234375l3.375 0.421875q-0.796875 2.96875 -2.96875 4.609375q-2.15625 1.640625 -5.53125 1.640625q-4.25 0 -6.75 -2.609375q-2.484375 -2.625 -2.484375 -7.34375q0 -4.890625 2.515625 -7.578125q2.515625 -2.703125 6.53125 -2.703125q3.890625 0 6.34375 2.640625q2.453125 2.640625 2.453125 7.4375q0 0.296875 -0.015625 0.875l-14.4375 0q0.1875 3.1875 1.8125 4.890625q1.625 1.6875 4.046875 1.6875q1.796875 0 3.078125 -0.9375q1.28125 -0.953125 2.03125 -3.03125zm-10.78125 -5.296875l10.8125 0q-0.21875 -2.453125 -1.234375 -3.671875q-1.578125 -1.890625 -4.078125 -1.890625q-2.25 0 -3.796875 1.515625q-1.53125 1.5 -1.703125 4.046875zm28.959229 11.53125l0 -26.71875l5.328125 0l6.328125 18.921875q0.875 2.640625 1.265625 3.953125q0.46875 -1.453125 1.421875 -4.28125l6.40625 -18.59375l4.75 0l0 26.71875l-3.40625 0l0 -22.359375l-7.765625 22.359375l-3.1875 0l-7.734375 -22.75l0 22.75l-3.40625 0zm43.42273 -2.390625q-1.828125 1.546875 -3.515625 2.1875q-1.6875 0.640625 -3.609375 0.640625q-3.1875 0 -4.90625 -1.546875q-1.71875 -1.5625 -1.71875 -4.0q0 -1.421875 0.640625 -2.59375q0.65625 -1.171875 1.703125 -1.875q1.046875 -0.71875 2.359375 -1.078125q0.96875 -0.265625 2.921875 -0.5q3.96875 -0.46875 5.84375 -1.125q0.03125 -0.671875 0.03125 -0.859375q0 -2.0 -0.9375 -2.828125q-1.25 -1.109375 -3.734375 -1.109375q-2.3125 0 -3.421875 0.8125q-1.09375 0.8125 -1.625 2.875l-3.21875 -0.4375q0.4375 -2.0625 1.4375 -3.328125q1.015625 -1.265625 2.90625 -1.953125q1.890625 -0.6875 4.390625 -0.6875q2.484375 0 4.03125 0.59375q1.546875 0.578125 2.28125 1.46875q0.734375 0.875 1.015625 2.21875q0.171875 0.84375 0.171875 3.03125l0 4.375q0 4.578125 0.203125 5.796875q0.21875 1.203125 0.828125 2.3125l-3.421875 0q-0.515625 -1.015625 -0.65625 -2.390625zm-0.28125 -7.328125q-1.78125 0.734375 -5.359375 1.25q-2.015625 0.28125 -2.859375 0.65625q-0.828125 0.359375 -1.296875 1.0625q-0.453125 0.703125 -0.453125 1.5625q0 1.3125 0.984375 2.1875q1.0 0.875 2.921875 0.875q1.890625 0 3.359375 -0.828125q1.484375 -0.84375 2.1875 -2.28125q0.515625 -1.109375 0.515625 -3.28125l0 -1.203125zm8.260132 17.171875l-0.359375 -3.078125q1.078125 0.296875 1.875 0.296875q1.09375 0 1.75 -0.375q0.65625 -0.359375 1.078125 -1.015625q0.3125 -0.5 1.0 -2.4375q0.09375 -0.28125 0.296875 -0.8125l-7.359375 -19.390625l3.546875 0l4.03125 11.21875q0.78125 2.125 1.390625 4.484375q0.578125 -2.265625 1.359375 -4.421875l4.140625 -11.28125l3.28125 0l-7.375 19.6875q-1.1875 3.1875 -1.84375 4.390625q-0.875 1.625 -2.0 2.375q-1.125 0.765625 -2.703125 0.765625q-0.9375 0 -2.109375 -0.40625zm29.70691 -7.453125l0 -26.71875l3.546875 0l0 10.96875l13.875 0l0 -10.96875l3.546875 0l0 26.71875l-3.546875 0l0 -12.59375l-13.875 0l0 12.59375l-3.546875 0zm25.207214 -9.671875q0 -5.390625 3.0 -7.96875q2.484375 -2.15625 6.078125 -2.15625q4.0 0 6.53125 2.625q2.53125 2.609375 2.53125 7.21875q0 3.734375 -1.125 5.875q-1.109375 2.140625 -3.265625 3.328125q-2.140625 1.1875 -4.671875 1.1875q-4.0625 0 -6.578125 -2.609375q-2.5 -2.609375 -2.5 -7.5zm3.375 0q0 3.71875 1.625 5.5625q1.625 1.84375 4.078125 1.84375q2.453125 0 4.0625 -1.859375q1.625 -1.859375 1.625 -5.65625q0 -3.59375 -1.640625 -5.4375q-1.625 -1.859375 -4.046875 -1.859375q-2.453125 0 -4.078125 1.84375q-1.625 1.84375 -1.625 5.5625zm18.541382 9.671875l0 -26.71875l3.28125 0l0 26.71875l-3.28125 0zm20.91809 0l0 -2.4375q-1.84375 2.875 -5.40625 2.875q-2.3125 0 -4.265625 -1.265625q-1.9375 -1.28125 -3.0 -3.5625q-1.0625 -2.296875 -1.0625 -5.265625q0 -2.90625 0.953125 -5.265625q0.96875 -2.359375 2.90625 -3.609375q1.9375 -1.265625 4.3125 -1.265625q1.75 0 3.109375 0.75q1.375 0.734375 2.234375 1.90625l0 -9.578125l3.265625 0l0 26.71875l-3.046875 0zm-10.375 -9.65625q0 3.71875 1.5625 5.5625q1.578125 1.828125 3.71875 1.828125q2.140625 0 3.640625 -1.75q1.515625 -1.765625 1.515625 -5.375q0 -3.96875 -1.53125 -5.828125q-1.53125 -1.859375 -3.78125 -1.859375q-2.1875 0 -3.65625 1.796875q-1.46875 1.78125 -1.46875 5.625z" fill-rule="nonzero"/></g></svg>